<mxfile host="app.diagrams.net" modified="2023-11-02T03:55:06.874Z" agent="Mozilla/5.0 (Windows NT 10.0; Win64; x64) AppleWebKit/537.36 (KHTML, like Gecko) Chrome/118.0.0.0 Safari/537.36" etag="8GSp07-S36Mv9AcSC3ID" version="22.0.8" type="github">
  <diagram id="C5RBs43oDa-KdzZeNtuy" name="Page-1">
    <mxGraphModel dx="1120" dy="528" grid="1" gridSize="10" guides="1" tooltips="1" connect="1" arrows="1" fold="1" page="1" pageScale="1" pageWidth="827" pageHeight="1169" math="0" shadow="0">
      <root>
        <mxCell id="WIyWlLk6GJQsqaUBKTNV-0" />
        <mxCell id="WIyWlLk6GJQsqaUBKTNV-1" parent="WIyWlLk6GJQsqaUBKTNV-0" />
        <mxCell id="q7pKbTlOS-aKsccpUy4R-19" value="" style="edgeStyle=none;curved=1;rounded=0;orthogonalLoop=1;jettySize=auto;html=1;fontSize=12;startSize=8;endSize=8;" edge="1" parent="WIyWlLk6GJQsqaUBKTNV-1" source="q7pKbTlOS-aKsccpUy4R-12" target="q7pKbTlOS-aKsccpUy4R-13">
          <mxGeometry relative="1" as="geometry" />
        </mxCell>
        <mxCell id="q7pKbTlOS-aKsccpUy4R-12" value="start" style="rounded=1;whiteSpace=wrap;html=1;fontSize=16;" vertex="1" parent="WIyWlLk6GJQsqaUBKTNV-1">
          <mxGeometry x="290" y="330" width="120" height="60" as="geometry" />
        </mxCell>
        <mxCell id="q7pKbTlOS-aKsccpUy4R-24" value="" style="edgeStyle=none;curved=1;rounded=0;orthogonalLoop=1;jettySize=auto;html=1;fontSize=12;startSize=8;endSize=8;" edge="1" parent="WIyWlLk6GJQsqaUBKTNV-1" source="q7pKbTlOS-aKsccpUy4R-13" target="q7pKbTlOS-aKsccpUy4R-14">
          <mxGeometry relative="1" as="geometry" />
        </mxCell>
        <mxCell id="q7pKbTlOS-aKsccpUy4R-13" value="L.o&lt;br&gt;phr=3,14&lt;br&gt;r" style="shape=parallelogram;perimeter=parallelogramPerimeter;whiteSpace=wrap;html=1;fixedSize=1;fontSize=16;" vertex="1" parent="WIyWlLk6GJQsqaUBKTNV-1">
          <mxGeometry x="290" y="460" width="120" height="60" as="geometry" />
        </mxCell>
        <mxCell id="q7pKbTlOS-aKsccpUy4R-21" value="" style="edgeStyle=none;curved=1;rounded=0;orthogonalLoop=1;jettySize=auto;html=1;fontSize=12;startSize=8;endSize=8;" edge="1" parent="WIyWlLk6GJQsqaUBKTNV-1" source="q7pKbTlOS-aKsccpUy4R-14" target="q7pKbTlOS-aKsccpUy4R-15">
          <mxGeometry relative="1" as="geometry" />
        </mxCell>
        <mxCell id="q7pKbTlOS-aKsccpUy4R-14" value="L.o=phr x r x r" style="rounded=0;whiteSpace=wrap;html=1;fontSize=16;" vertex="1" parent="WIyWlLk6GJQsqaUBKTNV-1">
          <mxGeometry x="290" y="610" width="120" height="60" as="geometry" />
        </mxCell>
        <mxCell id="q7pKbTlOS-aKsccpUy4R-23" value="" style="edgeStyle=none;curved=1;rounded=0;orthogonalLoop=1;jettySize=auto;html=1;fontSize=12;startSize=8;endSize=8;" edge="1" parent="WIyWlLk6GJQsqaUBKTNV-1" source="q7pKbTlOS-aKsccpUy4R-15" target="q7pKbTlOS-aKsccpUy4R-16">
          <mxGeometry relative="1" as="geometry" />
        </mxCell>
        <mxCell id="q7pKbTlOS-aKsccpUy4R-15" value="L.o" style="shape=parallelogram;perimeter=parallelogramPerimeter;whiteSpace=wrap;html=1;fixedSize=1;fontSize=16;" vertex="1" parent="WIyWlLk6GJQsqaUBKTNV-1">
          <mxGeometry x="290" y="750" width="120" height="60" as="geometry" />
        </mxCell>
        <mxCell id="q7pKbTlOS-aKsccpUy4R-16" value="end" style="rounded=1;whiteSpace=wrap;html=1;fontSize=16;" vertex="1" parent="WIyWlLk6GJQsqaUBKTNV-1">
          <mxGeometry x="294" y="890" width="120" height="60" as="geometry" />
        </mxCell>
      </root>
    </mxGraphModel>
  </diagram>
</mxfile>
